<svg width="95" height="96" viewBox="0 0 95 96" fill="none" xmlns="http://www.w3.org/2000/svg">
<g id="Group">
<path id="Vector" d="M21.8911 1.48688H75.0806L94.3804 20.4783L94.3147 75.9341L75.728 94.8591H21.3657L1.47479 74.9376V21.399L21.8911 1.48688Z" stroke="black" stroke-linejoin="round"/>
<path id="Vector_2" d="M32.5475 21.8645H64.1478L74.6844 32.4564V64.2892L64.2135 75.1374H32.5475L21.7576 63.6912V32.4564L32.5475 21.8645Z" stroke="black" stroke-linejoin="round"/>
<path id="Vector_3" d="M1.47479 21.3874L21.7598 32.4444" stroke="black" stroke-linejoin="round"/>
<path id="Vector_4" d="M21.8842 1.48688L32.5427 21.864" stroke="black" stroke-linejoin="round"/>
<path id="Vector_5" d="M75.0775 1.48688L64.1469 21.864" stroke="black" stroke-linejoin="round"/>
<path id="Vector_6" d="M94.3791 20.4913L74.6852 32.4689" stroke="black" stroke-linejoin="round"/>
<path id="Vector_7" d="M94.3135 75.9314L74.6852 64.5518" stroke="black" stroke-linejoin="round"/>
<path id="Vector_8" d="M75.7282 94.8644L64.2159 75.1422" stroke="black" stroke-linejoin="round"/>
<path id="Vector_9" d="M21.3723 94.8644L32.5562 75.1422" stroke="black" stroke-linejoin="round"/>
<path id="Vector_10" d="M1.47479 74.9374L21.7598 63.6906" stroke="black" stroke-linejoin="round"/>
<path id="Vector_11" d="M25.5111 8.41132H71.2508L86.8727 25.03V71.5928L71.476 87.5756H25.4923L8.50995 71.0328V25.2293L25.5111 8.41132Z" stroke="black" stroke-linejoin="round"/>
<path id="Vector_12" d="M29.0797 15.2078H67.7169L80.5522 28.8748V67.9681L67.5668 80.8664H29.2955L15.1655 67.3417V28.8463L29.0797 15.2078Z" stroke="black" stroke-linejoin="round"/>
</g>
</svg>
