<svg width="95" height="96" viewBox="0 0 95 96" fill="none" xmlns="http://www.w3.org/2000/svg">
<g id="Group">
<path id="Vector" d="M48.0823 1.50624C48.2393 1.50624 48.4054 1.50624 48.5716 1.51558C57.3782 1.78638 74.7699 3.44854 84.1489 11.9461C93.8694 20.7518 93.6017 41.2767 93.8694 48.4483C93.9063 51.3804 93.2878 75.5751 84.0935 84.6983C74.8992 93.8216 62.0492 95.1756 48.8393 94.8114C35.6294 94.4472 16.7053 94.0924 10.6403 84.605C4.57539 75.1176 1.41829 70.4299 1.44598 47.4958C1.47368 26.0932 5.01848 17.6143 11.4434 11.1991C17.8684 4.78387 36.2571 1.18875 48.0823 1.50624Z" stroke="black" stroke-linejoin="round"/>
<path id="Vector_2" d="M11.4433 11.2077L25.8994 13.5609L47.6575 1.48685L69.4618 12.9259L84.1487 11.9454L82.7548 26.466L93.8415 47.6819L82.404 70.5319L83.5487 85.2392L69.0094 83.2596L48.8391 94.8107L25.8994 83.3529L10.6401 84.6136L13.0495 69.6261L1.4458 47.5044L12.6895 26.9235L11.4433 11.2077Z" stroke="black" stroke-linejoin="round"/>
<path id="Vector_3" d="M12.6831 26.9243H26.6131L25.893 13.5617L47.6511 23.8521L69.4553 12.9267L69.0953 26.9243L72.0401 47.7761L82.3976 70.5327L69.1876 69.6269L69.003 83.2604L48.0758 73.054L25.893 83.3538L26.6131 69.5336L12.9693 70.0845L23.4006 48.1402L12.6831 26.9243Z" stroke="black" stroke-linejoin="round"/>
<path id="Vector_4" d="M26.6237 26.9267L23.4112 48.1427L26.6237 69.536L48.4464 73.2338L69.1983 69.6294L72.0507 47.7785L82.759 26.4692L69.1798 27.4123L47.6617 23.8546L26.6237 26.9267Z" stroke="black" stroke-linejoin="round"/>
</g>
</svg>
