<svg width="73" height="96" viewBox="0 0 73 96" fill="none" xmlns="http://www.w3.org/2000/svg">
<path id="Vector" d="M20.2542 13.2329L36.5 1L53.3475 12.589M20.2542 13.2329L8.82203 10.6575L9.42373 26.7534M20.2542 13.2329V26.7534M20.2542 13.2329L36.5 23.5342M9.42373 26.7534L1 46.7123L10.0254 69.2466M9.42373 26.7534H20.2542M9.42373 26.7534L17.8475 48M10.0254 69.2466L8.22034 84.6986L20.2542 82.7671M10.0254 69.2466L17.8475 48M10.0254 69.2466H20.2542M20.2542 82.7671L37.7034 95L52.7458 82.7671M20.2542 82.7671V69.2466M20.2542 82.7671L36.5 72.4658M52.7458 82.7671L64.178 84.6986L62.9746 69.8904M52.7458 82.7671L36.5 72.4658M52.7458 82.7671V69.2466M62.9746 69.8904L72 47.3562L63.5763 26.1096M62.9746 69.8904L52.7458 69.2466M62.9746 69.8904L55.1525 47.3562M63.5763 26.1096L64.7797 11.3014L53.3475 12.589M63.5763 26.1096L55.1525 47.3562M63.5763 26.1096L52.7458 26.7534M53.3475 12.589L52.7458 26.7534M53.3475 12.589L36.5 23.5342M20.2542 26.7534L36.5 23.5342M17.8475 48L20.2542 69.2466M20.2542 69.2466L36.5 72.4658M36.5 72.4658L52.7458 69.2466M52.7458 69.2466L55.1525 47.3562M55.1525 47.3562L52.7458 26.7534M52.7458 26.7534L36.5 23.5342M29.8814 95H43.1186C59.0694 95 72 81.1638 72 64.0959V31.9041C72 14.8362 59.0694 1 43.1186 1H29.8814C13.9306 1 1 14.8362 1 31.9041V64.0959C1 81.1638 13.9306 95 29.8814 95Z" stroke="black" stroke-linecap="round"/>
</svg>
