<svg width="73" height="95" viewBox="0 0 73 95" fill="none" xmlns="http://www.w3.org/2000/svg">
<g id="Group 1025">
<path id="Vector" d="M11.3371 1H61.3496L71.789 11.6447L71.8912 83.9103L61.833 94.3764H11.1512L1 84.1548V11.2592L11.3371 1Z" stroke="black" stroke-linejoin="round"/>
<path id="Vector_2" d="M5.17047 13.6652L14.7639 5.35251H58.2785L67.9649 13.9191L67.7139 81.6522L58.6317 90.3692H14.4014L5.17047 81.9531V13.6652Z" stroke="black" stroke-linejoin="round"/>
<path id="Vector_3" d="M9.07629 16.0074L17.6472 9.18049L55.3796 9.03003L63.8018 16.0074L63.6531 79.4243L55.2774 86.4017H17.2846L9.07629 79.7347V16.0074Z" stroke="black" stroke-linejoin="round"/>
<path id="Vector_4" d="M12.6198 18.0827L20.2332 12.5911H52.7413L60.048 18.0827V77.3434L52.3881 83.0419H19.88L12.6198 77.5032V18.0827Z" stroke="black" stroke-linejoin="round"/>
<path id="Vector_5" d="M1 11.2644L12.62 18.0725" stroke="black" stroke-linejoin="round"/>
<path id="Vector_6" d="M11.3428 1L20.239 12.5757" stroke="black" stroke-linejoin="round"/>
<path id="Vector_7" d="M61.3514 1L52.7433 12.5757" stroke="black" stroke-linejoin="round"/>
<path id="Vector_8" d="M60.0424 18.0594L71.7832 11.6369" stroke="black" stroke-linejoin="round"/>
<path id="Vector_9" d="M71.8854 83.9027L60.0424 77.3203" stroke="black" stroke-linejoin="round"/>
<path id="Vector_10" d="M52.3917 83.0228L61.8364 94.3728" stroke="black" stroke-linejoin="round"/>
<path id="Vector_11" d="M19.8762 83.0228L11.1472 94.3728" stroke="black" stroke-linejoin="round"/>
<path id="Vector_12" d="M1 84.1619L12.62 77.4949" stroke="black" stroke-linejoin="round"/>
</g>
</svg>
