<svg width="96" height="96" viewBox="0 0 96 96" fill="none" xmlns="http://www.w3.org/2000/svg">
<g id="Group">
<path id="Vector" d="M48.4139 16.1785C48.4139 16.1785 56.5819 5.08356 66.8058 2.49568C77.0298 -0.0922042 84.1279 4.41541 87.3467 8.33957C90.5655 12.2637 92.7517 16.6208 94.1937 21.7683C95.7566 27.3582 95.1798 35.2818 93.4494 40.4575C91.7191 45.6333 87.2258 56.2671 75.718 69.7429C65.2429 82.0048 47.7348 94.8595 47.7348 94.8595C47.7348 94.8595 33.6502 83.0117 32.5804 82.0142C31.5105 81.0167 21.7797 70.7499 20.04 68.8301C18.3004 66.9104 5.76932 51.2231 2.88541 39.9588C0.0015043 28.6944 1.08064 15.8491 9.73237 8.0855C17.584 1.03706 24.4589 0.688861 29.9383 2.24159C35.948 3.94489 43.3811 9.1677 48.4139 16.1785V16.1785Z" stroke="black" stroke-linejoin="round"/>
<path id="Vector_2" d="M9.73059 8.08948L34.1136 15.3073L48.4122 16.1825L62.1619 15.3544L87.3449 8.34355L82.34 26.3458L93.4477 40.4615L74.7674 50.9636L58.7198 56.1676L48.2819 65.9074L40.4489 71.2714L20.0382 68.8341L21.2476 50.8601L27.7876 40.8191L27.2666 23.692L34.1136 15.3073L29.9366 2.25497" stroke="black" stroke-linejoin="round"/>
<path id="Vector_3" d="M2.20898 21.5386L13.4748 25.9333" stroke="black" stroke-linejoin="round"/>
<path id="Vector_4" d="M94.1925 21.7831L82.3406 26.3566L68.135 40.8769L58.7204 56.1784L55.4179 71.6398L47.7337 94.8743L40.4495 71.2822L27.7882 40.8299L13.6849 25.9331L2.94006 40.1806L21.2482 50.8709L37.9749 56.4419L48.2825 65.9182L55.4179 71.6398" stroke="black" stroke-linejoin="round"/>
<path id="Vector_5" d="M66.8052 2.48767L62.163 15.3424L68.7495 23.7271L68.1355 40.8542L74.7685 50.9516L75.7174 69.7349L55.4184 71.617L63.0096 82.4108" stroke="black" stroke-linejoin="round"/>
<path id="Vector_6" d="M27.7897 40.8108L37.9764 56.4228L40.451 71.2631L32.5807 82.0099" stroke="black" stroke-linejoin="round"/>
<path id="Vector_7" d="M82.3399 26.3415L68.7484 23.7348L48.4122 16.1782L27.2666 23.6878L13.4797 25.9181L9.73059 8.3299" stroke="black" stroke-linejoin="round"/>
</g>
</svg>
