<?xml version="1.0" encoding="utf-8"?>
<!-- Generator: Adobe Illustrator 28.1.0, SVG Export Plug-In . SVG Version: 6.00 Build 0)  -->
<svg version="1.1" id="Layer_1" xmlns="http://www.w3.org/2000/svg" xmlns:xlink="http://www.w3.org/1999/xlink" x="0px" y="0px"
	 viewBox="0 0 1536 997" style="enable-background:new 0 0 1536 997;" xml:space="preserve">
<style type="text/css">
	.st0{fill:#003049;}
</style>
<g>
	<g>
		<path class="st0" d="M551,120v24.4l-5.3,1.9c-16.7,6.2-36.7,19.9-58.2,75.2L312.2,673.1h-40.1L89.8,221.5
			c-16-41.2-33.6-65.9-53.6-75.5l-4.6-2.2V120h157.2v24.5l-5.5,1.8c-6.3,2.2-8,4.4-8.7,5.9c-3.5,7.5,3.9,26.6,14.3,53l4,10.4
			l133.7,339.2l131.5-339.2c11.3-29.2,14.3-49.2,8.9-59.4c-1.6-3-4.9-7.4-14.8-9.7l-6.2-1.4V120H551z"/>
	</g>
	<g>
		<path class="st0" d="M532.1,320.7c-61.6,174.5,17.5,305.1,127.4,343.8c106.8,37.7,251.6-6.4,317.1-192
			c53.2-150.7-2.1-298-128.5-342.6C738.2,91.2,594.4,144.2,532.1,320.7z M585.1,404.2c58.3-138.8,177.1-266.4,282.2-229.3
			c33.4,11.8,56.8,35.2,67.7,68c14,42,7.8,96.8-17.9,158.5c-54.8,130.6-177,249.4-278.7,213.5c-35.5-12.5-58.9-35.1-69.5-67.1
			C556.4,510.2,562.2,459.3,585.1,404.2z"/>
	</g>
	<g>
		<path class="st0" d="M1490.3,115.3v24.5l-5.5,1.8c-19.5,6.5-25.2,24.3-25.2,79.1v453.8h-21.9l-347.9-439.2V517
			c0,92,17.7,114.3,52.6,125.1l5.7,1.8v24.6h-118.9v-24.5l5.5-1.8c19.6-6.6,25.2-24.3,25.2-79.1V220.8c0-55.2-7.3-72.1-33.9-78.9
			l-6-1.5v-25h98.6l310.3,388.8V266.9c0-92-17.7-114.3-52.6-125.1l-5.7-1.8v-24.7H1490.3z"/>
	</g>
</g>
<g>
	<path class="st0" d="M279,736.4c2.3,0,4.9,0,7.8,0.1s5.5,0.1,7.8,0.1c2.4,0,4,0,4.8,0c16.5,0.1,29.9,2.6,40,7.6
		c10.2,4.9,17.6,12.2,22.3,21.7c4.7,9.5,7,21.3,7,35.5c0,15.2-2.6,27.8-7.8,37.8c-5.2,10-13,17.4-23.5,22.3
		c-10.5,4.9-23.9,7.3-40.2,7.3h-22.8c-1.4,0-2.1-0.8-2.1-2.3V738.5c0-0.7,0.2-1.3,0.5-1.6s1-0.5,1.8-0.5
		C275.2,736.4,276.7,736.4,279,736.4z M285.7,749.6v106.8c0,1.2,0.7,1.8,2.1,1.8h7.7c14,0,25.4-1.8,34-5.4c8.7-3.6,15-9.5,19.1-17.7
		c4-8.2,6.1-19,6.1-32.4c0-14.5-2.1-25.7-6.3-33.7c-4.2-8-10.6-13.6-19.3-16.8c-8.6-3.3-19.6-4.9-32.9-4.9h-8.7
		C286.3,747.1,285.7,747.9,285.7,749.6z"/>
	<path class="st0" d="M446.8,736.4c1.2,0,1.8,0.7,1.8,2.1v127.4c0,1.1-0.2,1.8-0.5,2.1c-0.4,0.4-1.1,0.5-2.1,0.5h-8.2
		c-1.1,0-1.8-0.1-2-0.4c-0.3-0.3-0.4-0.9-0.4-1.7v-128c0-1.4,0.7-2.1,2-2.1H446.8z"/>
	<path class="st0" d="M511.6,867.9c-0.3-0.5-0.3-1.1-0.1-1.8L558,738.7c0.4-0.8,0.8-1.4,1.3-1.8c0.5-0.4,1.1-0.5,2-0.5h10.7
		c2,0,3.3,0.8,3.7,2.3l46,127.4c0.4,0.6,0.4,1.2,0,1.7c-0.4,0.5-0.9,0.8-1.6,0.8H611c-1.4,0-2.3-0.5-2.7-1.6l-13.2-36.7
		c-0.1-0.5-0.3-0.8-0.5-1.1s-0.7-0.4-1.4-0.4H539c-1,0-1.6,0.5-2,1.4l-13.5,36.9c-0.1,0.5-0.4,0.8-0.7,1.1c-0.4,0.2-0.9,0.4-1.6,0.4
		h-8.2C512.3,868.6,511.9,868.4,511.6,867.9z M589.2,818c1.3,0,1.7-0.7,1.3-2l-23-63.3c-0.5-1.1-0.9-1.6-1.3-1.6
		c-0.4,0-0.9,0.6-1.3,1.8l-23.3,63.3c-0.5,1.2-0.2,1.8,0.9,1.8H589.2L589.2,818z"/>
	<path class="st0" d="M684.6,866.3V738.5c0-1.4,0.7-2.1,2-2.1h11.9c0.8,0,1.5,0.1,1.9,0.4c0.4,0.2,0.7,0.7,1,1.4l42.8,109.1
		c0.5,1.2,1,1.7,1.4,1.7c0.5-0.1,1-0.6,1.4-1.7l43.1-108.9c0.5-1.3,1.3-2,2.3-2h12.8c1.2,0,1.8,0.7,1.8,2.1v127.8
		c0,1.5-0.8,2.3-2.3,2.3h-8.9c-0.7,0-1.3-0.1-1.6-0.4c-0.4-0.3-0.5-0.9-0.5-1.7V761.3c0-0.6-0.1-0.8-0.4-0.7
		c-0.2,0.1-0.4,0.4-0.5,0.7l-41.4,105.2c-0.5,1.4-1.5,2.1-3,2.1h-7.1c-1.8,0-3-0.7-3.6-2l-40.5-104.3c-0.2-0.5-0.4-0.7-0.6-0.7
		c-0.2,0-0.3,0.2-0.3,0.7v104.3c0,0.6-0.2,1.1-0.4,1.4c-0.3,0.4-0.9,0.5-1.7,0.5h-7.5C685.3,868.6,684.6,867.9,684.6,866.3z"/>
	<path class="st0" d="M899.5,862.7c-8.3-5.2-14.6-12.8-19.1-22.8c-4.5-10-6.7-22.3-6.7-36.6c0-14.7,2.3-27.2,6.8-37.4
		c4.5-10.2,10.9-18,19.3-23.3c8.3-5.3,18.2-7.9,29.6-7.9c11.4,0,21.2,2.6,29.4,7.9c8.2,5.3,14.5,13,19,23.1s6.7,22.5,6.7,37.3
		c0,14.5-2.2,26.8-6.6,36.8c-4.4,10-10.8,17.7-19.1,22.9c-8.3,5.2-18.2,7.8-29.6,7.8C917.6,870.4,907.7,867.8,899.5,862.7z
		 M960.1,845.6c6.8-9.3,10.3-23.5,10.3-42.8c0-19.5-3.5-34-10.4-43.4c-7-9.4-17.1-14.2-30.6-14.2c-13.7,0-24,4.8-31,14.3
		c-7,9.5-10.5,23.9-10.5,43.3c0,19.3,3.5,33.5,10.6,42.8c7.1,9.3,17.4,13.9,31.1,13.9C943,859.5,953.2,854.9,960.1,845.6z"/>
	<path class="st0" d="M1147.1,736.4c1.2,0,1.8,0.7,1.8,2v128.3c0,0.6-0.2,1.1-0.4,1.4c-0.3,0.4-0.8,0.5-1.5,0.5h-6.2
		c-0.7,0-1.4-0.1-2-0.2c-0.6-0.1-1.1-0.5-1.6-1.1l-71.8-105.2c-0.6-0.8-1.1-1.2-1.5-1.1c-0.4,0.1-0.6,0.5-0.6,1.3v104.3
		c0,1.3-0.7,2-2.1,2h-7.7c-1.4,0-2.1-0.7-2.1-2.1v-128c0-1.4,0.7-2.1,2-2.1h7.5c0.8,0,1.5,0.1,1.9,0.3c0.4,0.2,0.9,0.6,1.3,1.3
		l70.6,103.7c0.7,0.8,1.3,1.1,1.9,0.9c0.5-0.2,0.8-0.7,0.8-1.4V738.3c0-1.3,0.6-2,1.8-2H1147.1L1147.1,736.4z"/>
	<path class="st0" d="M1228.3,736.4c2.3,0,4.9,0,7.8,0.1c2.8,0.1,5.5,0.1,7.8,0.1c2.4,0,4,0,4.8,0c16.5,0.1,29.9,2.6,40,7.6
		c10.2,4.9,17.6,12.2,22.3,21.7c4.7,9.5,7,21.3,7,35.5c0,15.2-2.6,27.8-7.8,37.8c-5.2,10-13,17.4-23.5,22.3
		c-10.5,4.9-23.9,7.3-40.2,7.3h-22.8c-1.4,0-2.1-0.8-2.1-2.3V738.5c0-0.7,0.2-1.3,0.5-1.6s1-0.5,1.8-0.5
		C1224.6,736.4,1226,736.4,1228.3,736.4z M1235,749.6v106.8c0,1.2,0.7,1.8,2.1,1.8h7.7c14,0,25.4-1.8,34-5.4
		c8.7-3.6,15-9.5,19.1-17.7c4-8.2,6.1-19,6.1-32.4c0-14.5-2.1-25.7-6.3-33.7c-4.2-8-10.6-13.6-19.3-16.8c-8.6-3.3-19.6-4.9-32.9-4.9
		h-8.7C1235.6,747.1,1235,747.9,1235,749.6z"/>
	<path class="st0" d="M1438.8,749.4c-5.1-2.7-11.3-4.1-18.7-4.1c-9.3,0-16.6,2.1-22.1,6.4c-5.5,4.3-8.2,10.3-8.2,18
		c0,2,0.4,4.4,1.3,7c0.9,2.7,2.8,5.3,5.7,7.9c2.9,2.6,7.3,5,13.1,7.1l25.3,8.7c10.7,3.6,18.3,8.2,22.7,13.9
		c4.5,5.7,6.7,12.5,6.7,20.3c0,7.5-1.8,13.9-5.5,19.3c-3.7,5.3-8.9,9.4-15.8,12.2c-6.8,2.8-15,4.2-24.5,4.2c-6.9,0-13.2-0.8-19-2.5
		c-5.8-1.7-10.9-4.1-15.4-7.4c-4.5-3.3-8.5-7.3-11.9-12.2c-0.6-0.7-0.8-1.4-0.6-2c0.2-0.7,0.7-1.3,1.7-2l4.6-3.2
		c1.1-0.6,1.9-0.9,2.4-0.9s1.1,0.4,1.7,1.1c3.2,4,6.4,7.5,9.6,10.3c3.2,2.8,6.9,4.9,11,6.2c4.2,1.4,9.3,2,15.5,2
		c9.9,0,17.8-1.8,23.9-5.5s9.1-9.8,9.1-18.4c0-3.2-0.6-6.1-1.8-8.6c-1.2-2.6-3.3-5-6.3-7.3c-3-2.3-7.5-4.5-13.5-6.7l-26.9-9.8
		c-6.5-2.4-11.7-5.3-15.5-8.7c-3.8-3.4-6.5-7.3-8.2-11.4c-1.7-4.2-2.5-8.3-2.5-12.5c0-7.6,1.8-14.1,5.4-19.4
		c3.6-5.3,8.7-9.5,15.2-12.4c6.5-2.9,14.1-4.4,22.8-4.4c5.8,0,11.1,0.7,16,2.1c4.8,1.4,9.3,3.4,13.5,6c4.2,2.6,7.8,5.7,11,9.4
		c0.4,0.5,0.6,1,0.8,1.4s-0.1,1-0.8,1.6l-6.4,5.2c-0.6,0.4-1,0.4-1.3,0.3c-0.3-0.2-0.8-0.6-1.5-1.2
		C1448.1,755.4,1443.9,752.1,1438.8,749.4z"/>
</g>
</svg>
