<svg width="51" height="96" viewBox="0 0 51 96" fill="none" xmlns="http://www.w3.org/2000/svg">
<g id="Group">
<path id="Vector" d="M25.5935 1.49628C25.5935 1.49628 29.4028 5.10521 33.0912 9.49419C36.7797 13.8832 41.1185 19.5221 43.0045 23.5822C44.8906 27.6422 50.047 36.5987 49.8891 48.027C49.7218 59.4647 44.2402 70.8177 43.4133 72.3966C42.5865 73.9756 39.1488 81.5975 34.3176 86.7384C29.4864 91.8792 26.4483 94.2006 25.5471 94.8585C25.5471 94.8585 20.465 91.1274 16.6186 86.823C12.7722 82.5092 9.65044 77.2086 7.52284 73.0639C5.39524 68.9193 1.62316 58.3087 1.45592 48.074C1.28869 37.8393 7.68079 24.0803 7.84802 23.413C8.01526 22.7457 13.2553 13.714 17.7613 8.74233C22.2674 3.77065 25.5842 1.48688 25.5842 1.48688L25.5935 1.49628Z" stroke="black" stroke-linejoin="round"/>
<path id="Vector_2" d="M32.7814 9.13705L25.6646 19.1274L31.3228 26.0727L39.638 35.6777L49.8765 48.027L39.7867 59.2297L31.7966 68.7877L22.1713 80.0092L7.51961 73.0545L11.3289 59.5962L14.8687 47.2563L19.7835 26.2324L22.4314 14.87L25.5903 1.48688L28.8142 15.2177L31.4249 26.4862L36.6464 47.7638L39.8889 59.5962L43.4008 72.3966L29.1208 80.5543L25.5903 76.0901L19.542 68.9757L11.3289 59.5962L1.4527 48.0646L11.3846 36.1758L19.7835 26.2324L25.6646 19.1274L17.7581 8.74232" stroke="black" stroke-linejoin="round"/>
<path id="Vector_3" d="M22.428 14.8819L7.71127 23.7632L11.3812 36.1877L14.7259 47.7664L19.5385 68.9876L22.1678 80.0211L25.5404 94.861L29.1174 80.5662" stroke="black" stroke-linejoin="round"/>
<path id="Vector_4" d="M16.6222 86.8336L22.1781 80.0293" stroke="black" stroke-linejoin="round"/>
<path id="Vector_5" d="M34.3133 86.7409L29.129 80.5662L31.8048 68.7996L36.6546 47.7758L39.6463 35.6896L42.8981 23.3685L28.7017 14.8819" stroke="black" stroke-linejoin="round"/>
</g>
</svg>
