<svg width="62" height="95" viewBox="0 0 62 95" fill="none" xmlns="http://www.w3.org/2000/svg">
<g id="Group">
<path id="Vector" d="M31.0004 94.3673C47.5691 94.3673 61.0007 73.4663 61.0007 47.6837C61.0007 21.901 47.5691 1 31.0004 1C14.4316 1 1 21.901 1 47.6837C1 73.4663 14.4316 94.3673 31.0004 94.3673Z" stroke="black" stroke-linejoin="round"/>
<path id="Vector_2" d="M31.0004 1L39.8525 14.6624L47.9413 47.6931L52.8654 59.4252L52.642 80.0176L39.7315 80.8179L31.0004 94.3767L21.8039 80.8744L8.9213 79.2926V59.2369L1 47.6931L9.34947 35.9327L9.11676 15.7546L21.8039 14.361L31.0004 1Z" stroke="black" stroke-linejoin="round"/>
<path id="Vector_3" d="M18.2341 5.42233L21.7992 14.3579L30.9957 20.9961L43.506 29.6022L52.3674 36.1838L60.9868 47.9819L52.8607 59.4221L42.9475 66.1167L30.9957 74.3556L21.7992 80.8713L18.2341 89.9482" stroke="black" stroke-linejoin="round"/>
<path id="Vector_4" d="M43.7649 89.9632L39.7344 80.8299L43.1785 65.9811L47.9443 47.705L52.375 36.1989L52.6635 15.4087L39.8554 14.6743L9.35242 35.9447L14.0251 47.705L18.5862 65.8305L21.8068 80.8864" stroke="black" stroke-linejoin="round"/>
<path id="Vector_5" d="M2.57617 62.614L8.92438 59.5445L14.0253 47.69L18.819 29.3291L21.8069 14.3579L39.8556 14.6593L43.765 5.42233" stroke="black" stroke-linejoin="round"/>
<path id="Vector_6" d="M59.3184 32.2241L52.3745 36.1787" stroke="black" stroke-linejoin="round"/>
<path id="Vector_7" d="M59.2803 63.2654L52.8577 59.4331" stroke="black" stroke-linejoin="round"/>
<path id="Vector_8" d="M39.7312 80.8198L31.0001 74.3606L18.583 65.8204L8.92102 59.5495" stroke="black" stroke-linejoin="round"/>
<path id="Vector_9" d="M9.35255 35.9464L2.57617 32.7827" stroke="black" stroke-linejoin="round"/>
</g>
</svg>
