<svg width="61" height="95" viewBox="0 0 61 95" fill="none" xmlns="http://www.w3.org/2000/svg">
<g id="Group">
<path id="Vector" d="M30.9441 1C30.9441 1 49.2417 19.7073 56.7398 42.0183C64.2379 64.3198 61.5893 91.8288 30.9441 94.3571C30.9441 94.3571 2.64896 96.291 1.03556 61.7915C-0.195472 35.4429 30.9441 1 30.9441 1V1Z" stroke="black" stroke-linejoin="round"/>
<path id="Vector_2" d="M20.8745 13.6735L31.2077 26.7111L41.0373 38.1448L48.7499 47.6824L60.2675 62.1728L49.8037 69.0878L41.6528 72.5405L30.9465 77.0688L24.7354 81.5876" stroke="black" stroke-linejoin="round"/>
<path id="Vector_3" d="M43.8573 91.218L37.1799 81.5955L30.9408 77.0767L20.7848 72.7277L12.3355 69.1239L1.02301 61.7939L13.5105 47.6903L21.1019 38.2565L31.202 26.719L36.4711 20.0681L41.6284 13.9644" stroke="black" stroke-linejoin="round"/>
<path id="Vector_4" d="M36.4783 20.0626L51.1388 29.1002L48.7514 47.6848L46.5038 57.2885L41.6543 72.543L37.1871 81.59L30.948 94.3445L24.7369 81.59L20.792 72.7222L15.7933 57.4771L13.5177 47.6848L11.2795 28.5531L25.8747 20.2419" stroke="black" stroke-linejoin="round"/>
<path id="Vector_5" d="M37.1795 81.5931L54.4233 82.7252L49.7976 69.0933L46.7293 58.1029L41.0311 38.1504L36.4707 20.0657L30.9404 1L25.8671 20.245L20.8776 39.1221L15.7857 57.4803L7.98911 83.7629L24.7293 81.5931L17.5949 91.508" stroke="black" stroke-linejoin="round"/>
</g>
</svg>
