<svg width="75" height="96" viewBox="0 0 75 96" fill="none" xmlns="http://www.w3.org/2000/svg">
<g id="Group">
<path id="Vector" d="M10.064 1.57091L65.3113 1.48688L74.3484 10.5911V85.5166L64.8682 94.8636L10.9225 94.6955L0.96228 84.256V10.9179L10.064 1.57091Z" stroke="black" stroke-linejoin="round"/>
<path id="Vector_2" d="M7.14609 17.8177L17.3925 9.65659L57.5471 9.75931L67.9966 17.8177L68.0888 78.6246L58.0917 86.3842H16.9494L7.14609 78.5779V17.8177Z" stroke="black" stroke-linejoin="round"/>
<path id="Vector_3" d="M0.96228 10.9134L7.14703 17.8139L16.0088 48.1707L7.14703 78.5742L0.96228 84.2515" stroke="black" stroke-linejoin="round"/>
<path id="Vector_4" d="M10.921 94.7045L16.9488 86.394L18.0843 78.485L16.0073 48.1843L17.6412 17.5847L17.3919 9.66638L10.0626 1.57996" stroke="black" stroke-linejoin="round"/>
<path id="Vector_5" d="M7.14609 17.8185L17.6417 17.5757L38.0882 15.0639L57.5471 9.76007L65.3103 1.48688" stroke="black" stroke-linejoin="round"/>
<path id="Vector_6" d="M74.346 10.5904L67.9952 17.8177L57.1488 18.0231L38.0868 15.0631L17.3911 9.65659" stroke="black" stroke-linejoin="round"/>
<path id="Vector_7" d="M57.5484 9.76129L57.1514 18.0251L59.773 48.1765L57.3453 78.7293L58.093 86.3862L64.8685 94.8648" stroke="black" stroke-linejoin="round"/>
<path id="Vector_8" d="M74.3559 85.5127L68.0973 78.6216L59.7803 48.1714L68.0051 17.8146" stroke="black" stroke-linejoin="round"/>
<path id="Vector_9" d="M68.0876 78.6294L57.3705 78.424L37.9855 80.9825L16.9481 86.389" stroke="black" stroke-linejoin="round"/>
<path id="Vector_10" d="M7.14609 78.5732L18.0848 78.4705L38.4113 80.917L58.0917 86.3795" stroke="black" stroke-linejoin="round"/>
</g>
</svg>
