<svg width="94" height="95" viewBox="0 0 94 95" fill="none" xmlns="http://www.w3.org/2000/svg">
<path d="M46.9789 94.3757C72.3723 94.3757 92.9577 73.4728 92.9577 47.6878C92.9577 21.9029 72.3723 1 46.9789 1C21.5854 1 1 21.9029 1 47.6878C1 73.4728 21.5854 94.3757 46.9789 94.3757Z" stroke="black" stroke-linejoin="round"/>
<path d="M28.7567 4.81726L33.5199 16.5826L14.0981 15.0512L15.4089 35.1737L22.4428 47.6954L29.209 64.8298L34.2029 78.4533L28.8398 90.6201" stroke="black" stroke-linejoin="round"/>
<path d="M4.33057 30.1986L15.4076 35.1662L28.8015 30.3947L22.4415 47.6878L15.5368 60.3216L14.6322 80.8736L34.2016 78.4365L46.6356 72.6285L64.128 64.953L77.245 60.1161L92.9467 47.6878L77.1066 34.886L64.2572 30.6655C64.2572 30.6655 46.1463 23.1954 45.9432 23.0647C45.7402 22.9339 33.5093 16.5657 33.5093 16.5657L46.9679 1L59.1434 16.6404L64.0911 4.34286" stroke="black" stroke-linejoin="round"/>
<path d="M34.2183 78.4493L46.9846 94.3792L59.4278 78.4493L64.1448 64.9659L71.3264 47.7101L77.1326 34.8896L79.6249 14.8138L59.1601 16.644L45.9692 23.0682L28.8183 30.3982L33.5353 16.5787" stroke="black" stroke-linejoin="round"/>
<path d="M59.1565 16.6412L64.2796 30.6755L71.3228 47.7073L77.2674 60.1262L79.3259 80.8837L59.4242 78.4465L64.7596 90.6134" stroke="black" stroke-linejoin="round"/>
<path d="M59.422 78.4365L46.6466 72.6285L29.2187 64.813L15.557 60.3216L1 48.2948L15.4186 35.1569" stroke="black" stroke-linejoin="round"/>
<path d="M4.33057 65.7054L15.5553 60.3176" stroke="black" stroke-linejoin="round"/>
<path d="M77.2649 60.1082L89.3665 65.8041" stroke="black" stroke-linejoin="round"/>
<path d="M77.1268 34.8842L89.3116 29.431" stroke="black" stroke-linejoin="round"/>
</svg>
